<?xml version="1.0" encoding="UTF-8"?><svg id="Layer_1" xmlns="http://www.w3.org/2000/svg" viewBox="0 0 204.65 139.34"><defs><style>.cls-1{fill:#635a4e;}.cls-2{opacity:.67;}</style></defs><g class="cls-2"><g><g><g><g><path class="cls-1" d="m92.92,127.5c-2.37,0-3.52,1.56-3.52,2.04,0,.48,1.15,2.04,3.52,2.04,2.37,0,6.02-2.04,6.02-2.04,0,0-3.65-2.04-6.02-2.04Z"/><g><path class="cls-1" d="m95.91,124.45c-.76-.76-1.63-.63-1.79-.48-.16.16-.29,1.03.48,1.79s2.59,1.28,2.59,1.28c0,0-.52-1.83-1.28-2.59Z"/><path class="cls-1" d="m94.6,133.32c-.76.76-.63,1.63-.48,1.79.16.16,1.03.29,1.79-.48.76-.76,1.28-2.59,1.28-2.59,0,0-1.83.52-2.59,1.28Z"/></g></g><g><path class="cls-1" d="m111.73,131.59c2.37,0,3.52-1.56,3.52-2.04s-1.15-2.04-3.52-2.04c-2.37,0-6.02,2.04-6.02,2.04,0,0,3.65,2.04,6.02,2.04Z"/><g><path class="cls-1" d="m108.73,134.64c.76.76,1.63.63,1.79.48.16-.16.29-1.03-.48-1.79-.76-.76-2.59-1.28-2.59-1.28,0,0,.52,1.83,1.28,2.59Z"/><path class="cls-1" d="m110.05,125.76c.76-.76.63-1.63.48-1.79s-1.03-.29-1.79.48c-.76.76-1.28,2.59-1.28,2.59,0,0,1.83-.52,2.59-1.28Z"/></g></g></g><path class="cls-1" d="m102.32,127.5c1.13,0,2.04.91,2.04,2.04s-.91,2.04-2.04,2.04-2.04-.91-2.04-2.04.91-2.04,2.04-2.04Z"/></g><g><g><g><path class="cls-1" d="m92.92,7.75c-2.37,0-3.52,1.56-3.52,2.04,0,.48,1.15,2.04,3.52,2.04s6.02-2.04,6.02-2.04c0,0-3.65-2.04-6.02-2.04Z"/><g><path class="cls-1" d="m95.91,4.7c-.76-.76-1.63-.63-1.79-.48-.16.16-.29,1.03.48,1.79.76.76,2.59,1.28,2.59,1.28,0,0-.52-1.83-1.28-2.59Z"/><path class="cls-1" d="m94.6,13.58c-.76.76-.63,1.63-.48,1.79.16.16,1.03.29,1.79-.48s1.28-2.59,1.28-2.59c0,0-1.83.52-2.59,1.28Z"/></g></g><g><path class="cls-1" d="m111.73,11.84c2.37,0,3.52-1.56,3.52-2.04s-1.15-2.04-3.52-2.04c-2.37,0-6.02,2.04-6.02,2.04,0,0,3.65,2.04,6.02,2.04Z"/><g><path class="cls-1" d="m108.73,14.89c.76.76,1.63.63,1.79.48.16-.16.29-1.03-.48-1.79-.76-.76-2.59-1.28-2.59-1.28,0,0,.52,1.83,1.28,2.59Z"/><path class="cls-1" d="m110.05,6.01c.76-.76.63-1.63.48-1.79-.16-.16-1.03-.29-1.79.48-.76.76-1.28,2.59-1.28,2.59,0,0,1.83-.52,2.59-1.28Z"/></g></g></g><circle class="cls-1" cx="102.32" cy="9.8" r="2.04"/></g></g><g><g><path class="cls-1" d="m11.64,70.79c1.02,0,1.52-.85,1.52-1.12s-.5-1.12-1.52-1.12-2.6,1.12-2.6,1.12c0,0,1.57,1.12,2.6,1.12Z"/><g><path class="cls-1" d="m4.31,67.9c-1.62,0-2.41,1.35-2.41,1.77s.79,1.77,2.41,1.77c1.62,0,4.12-1.77,4.12-1.77,0,0-2.5-1.77-4.12-1.77Z"/><g><path class="cls-1" d="m6.36,65.25c-.52-.66-1.12-.55-1.23-.41-.11.13-.2.89.33,1.55.52.66,1.78,1.11,1.78,1.11,0,0-.35-1.59-.88-2.25Z"/><path class="cls-1" d="m5.46,72.95c-.52.66-.43,1.42-.33,1.55.11.13.7.25,1.23-.41.52-.66.88-2.25.88-2.25,0,0-1.25.45-1.78,1.11Z"/></g></g></g><g><path class="cls-1" d="m193.01,68.55c-1.02,0-1.52.85-1.52,1.12,0,.26.5,1.12,1.52,1.12s2.6-1.12,2.6-1.12c0,0-1.57-1.12-2.6-1.12Z"/><g><path class="cls-1" d="m200.33,71.44c1.62,0,2.41-1.35,2.41-1.77,0-.42-.79-1.77-2.41-1.77s-4.12,1.77-4.12,1.77c0,0,2.5,1.77,4.12,1.77Z"/><g><path class="cls-1" d="m198.28,74.09c.52.66,1.12.55,1.23.41.11-.13.2-.89-.33-1.55s-1.78-1.11-1.78-1.11c0,0,.35,1.59.88,2.25Z"/><path class="cls-1" d="m199.18,66.39c.52-.66.43-1.42.33-1.55s-.7-.25-1.23.41c-.52.66-.88,2.25-.88,2.25,0,0,1.25-.45,1.78-1.11Z"/></g></g></g></g><g><g><g><g><path class="cls-1" d="m21.6,116.98c1.35-1.35.88-3.14.53-3.49-.35-.35-2.13-.82-3.49.53-1.35,1.35-1.96,4.91-1.96,4.91,0,0,3.56-.61,4.91-1.96Z"/><g><path class="cls-1" d="m22.1,120.89c.98.12,1.39-.48,1.36-.68-.02-.2-.58-.91-1.56-1.02-.98-.12-2.4.55-2.4.55,0,0,1.62,1.03,2.6,1.14Z"/><path class="cls-1" d="m16.43,113.73c-.12-.98-.82-1.54-1.02-1.56-.2-.02-.79.38-.68,1.36.12.98,1.14,2.6,1.14,2.6,0,0,.67-1.42.55-2.4Z"/></g></g><g><path class="cls-1" d="m4.84,110.87c-1,1.56-2.71,2.06-2.72,2.05-1.28-2.55.07-3.91-.22-4.91-.09-.3.6-.02.86.63.24-.67,1.63-.73,1.77-2.12.06-.59,1.95,1.81.31,4.35Z"/><path class="cls-1" d="m7.19,94.27c.61,2.96,3.69,1.98,2.84,7.4,5.06,2.21,6.01,7.07,3.21,11.67,0,0,0,0,0,0-.64,1.12-2.91,3.33-6.79,3.53-3.55.19-6.38-2.58-4.87-2.47,2.81.21,2.99-2.57,5.45-2,1.85.43,0,.89.82,1.59,1.18,1.03,3.63.24,4.88-2.19,1.04-2.01-.05-4.52-1.91-4.51-1.06,1.69-4.21,1.15-3.41-1.31.99-3.04,5.96-.97,6.8,2.73-.01-2.63-1.33-4.79-4.89-6.04-.46-.16-.85-.37-1.2-.61-1.43-.7-5.23-1.04-6.3,1.61,1.46-2.37,5.52-1.38,6.62-.58-1.15-.39-2.51-.24-3.87,1.4-1.82,2.19-4.93.94-4.54.75,1.09-.54.66-2.31,1.85-3.66,1.29-1.46,3.62-1.43,5.56-.08-2.89-2.95-.6-8.88-.26-7.23Z"/></g><g><path class="cls-1" d="m26.86,125.79c-1.46-1.15-1.78-2.9-1.77-2.91,2.67-1.02,3.88.45,4.9.26.31-.06-.04.6-.71.79.64.3.57,1.7,1.94,1.97.58.11-1.99,1.76-4.36-.11Z"/><path class="cls-1" d="m43.15,129.74c-3,.31-2.33,3.48-7.64,2.1-2.69,4.82-7.62,5.29-11.93,2.05h0c-1.05-.74-3.03-3.22-2.85-7.1.16-3.55,3.19-6.1,2.93-4.61-.48,2.77,2.26,3.23,1.46,5.62-.61,1.8-.88-.08-1.67.66-1.14,1.08-.59,3.59,1.7,5.07,1.9,1.23,4.5.39,4.68-1.46-1.58-1.22-.74-4.3,1.64-3.26,2.93,1.28.38,6.03-3.39,6.5,2.62.24,4.9-.86,6.49-4.28.2-.44.45-.81.72-1.13.83-1.36,1.55-5.1-.99-6.43,2.22,1.69.83,5.63-.07,6.65.5-1.11.48-2.48-1.01-3.99-2-2.02-.46-5-.3-4.59.43,1.14,2.24.89,3.46,2.2,1.33,1.43,1.07,3.74-.46,5.54,3.22-2.59,8.9.27,7.23.45Z"/></g><g><path class="cls-1" d="m7.41,125.97c-2.01-.65-3.88.15-3.88.16.72,3.17,2.88,3.39,3.35,4.48.14.33.55-.42.3-1.17.69.42,1.97-.54,3.09.59.48.48.41-3-2.87-4.06Z"/><path class="cls-1" d="m21.46,138.91c-1.6-3.04,1.82-4.41-2.84-8.57,2.86-5.6.19-10.57-5.6-12.6,0,0,0,0,0,0-1.37-.53-4.96-.83-8.53,1.79-3.26,2.4-3.76,6.88-2.51,5.69,2.32-2.21,4.49.1,6.24-2.17,1.32-1.71-.64-.78-.43-2,.3-1.76,3.03-2.83,5.88-1.6,2.37,1.03,3.22,4.01,1.58,5.36-2.16-.73-4.55,2.03-2.05,3.62,3.07,1.96,5.95-3.45,4.02-7.32,1.89,2.33,2.29,5.18.06,8.86-.29.47-.48.94-.62,1.4-.76,1.65-3.86,4.69-6.72,3.13,3,1.03,5.86-2.77,6.26-4.27-.73,1.18-2.04,2.02-4.42,1.56-3.18-.62-5.02,2.73-4.54,2.62,1.35-.31,2.26,1.56,4.28,1.89,2.2.35,4.22-1.35,4.95-3.94-.42,4.69,5.89,8.26,5,6.56Z"/></g></g><g><g><path class="cls-1" d="m21.6,22.36c1.35,1.35.88,3.14.53,3.49-.35.35-2.13.82-3.49-.53-1.35-1.35-1.96-4.91-1.96-4.91,0,0,3.56.61,4.91,1.96Z"/><g><path class="cls-1" d="m22.1,18.45c.98-.12,1.39.48,1.36.68-.02.2-.58.91-1.56,1.02-.98.12-2.4-.55-2.4-.55,0,0,1.62-1.03,2.6-1.14Z"/><path class="cls-1" d="m16.43,25.61c-.12.98-.82,1.54-1.02,1.56-.2.02-.79-.38-.68-1.36.12-.98,1.14-2.6,1.14-2.6,0,0,.67,1.42.55,2.4Z"/></g></g><g><path class="cls-1" d="m4.84,28.47c-1-1.56-2.71-2.06-2.72-2.05-1.28,2.55.07,3.91-.22,4.91-.09.3.6.02.86-.63.24.67,1.63.73,1.77,2.12.06.59,1.95-1.81.31-4.35Z"/><path class="cls-1" d="m7.19,45.07c.61-2.96,3.69-1.98,2.84-7.4,5.06-2.21,6.01-7.07,3.21-11.67,0,0,0,0,0,0-.64-1.12-2.91-3.33-6.79-3.53-3.55-.19-6.38,2.58-4.87,2.47,2.81-.21,2.99,2.57,5.45,2,1.85-.43,0-.89.82-1.59,1.18-1.03,3.63-.24,4.88,2.19,1.04,2.01-.05,4.52-1.91,4.51-1.06-1.69-4.21-1.15-3.41,1.31.99,3.04,5.96.97,6.8-2.73-.01,2.63-1.33,4.79-4.89,6.04-.46.16-.85.37-1.2.61-1.43.7-5.23,1.04-6.3-1.61,1.46,2.37,5.52,1.38,6.62.58-1.15.39-2.51.24-3.87-1.4-1.82-2.19-4.93-.94-4.54-.75,1.09.54.66,2.32,1.85,3.66,1.29,1.46,3.62,1.43,5.56.08-2.89,2.95-.6,8.88-.26,7.23Z"/></g><g><path class="cls-1" d="m26.86,13.55c-1.46,1.15-1.78,2.9-1.77,2.91,2.67,1.02,3.88-.45,4.9-.26.31.06-.04-.6-.71-.79.64-.3.57-1.7,1.94-1.97.58-.11-1.99-1.76-4.36.11Z"/><path class="cls-1" d="m43.15,9.6c-3-.31-2.33-3.48-7.64-2.1-2.69-4.82-7.62-5.29-11.93-2.05h0c-1.05.74-3.03,3.22-2.85,7.1.16,3.55,3.19,6.1,2.93,4.61-.48-2.77,2.26-3.23,1.46-5.62-.61-1.8-.88.08-1.67-.66-1.14-1.08-.59-3.59,1.7-5.07,1.9-1.23,4.5-.39,4.68,1.46-1.58,1.22-.74,4.3,1.64,3.26,2.93-1.28.38-6.03-3.39-6.5,2.62-.24,4.9.86,6.49,4.28.2.44.45.81.72,1.13.83,1.36,1.55,5.1-.99,6.43,2.22-1.69.83-5.63-.07-6.65.5,1.11.48,2.48-1.01,3.99-2,2.02-.46,5-.3,4.59.43-1.14,2.24-.88,3.46-2.2,1.33-1.43,1.07-3.74-.46-5.54,3.22,2.59,8.9-.27,7.23-.45Z"/></g><g><path class="cls-1" d="m7.41,13.37c-2.01.65-3.88-.15-3.88-.16.72-3.17,2.88-3.39,3.35-4.48.14-.33.55.42.3,1.17.69-.42,1.97.54,3.09-.59.48-.48.41,3-2.87,4.06Z"/><path class="cls-1" d="m21.46.43c-1.6,3.04,1.82,4.41-2.84,8.57,2.86,5.59.19,10.57-5.6,12.6,0,0,0,0,0,0-1.37.53-4.96.83-8.53-1.79-3.26-2.4-3.76-6.88-2.51-5.69,2.32,2.21,4.49-.1,6.24,2.17,1.32,1.71-.64.78-.43,2,.3,1.76,3.03,2.83,5.88,1.6,2.37-1.03,3.22-4.01,1.58-5.36-2.16.73-4.55-2.03-2.05-3.62,3.07-1.96,5.95,3.45,4.02,7.32,1.89-2.33,2.29-5.18.06-8.86-.29-.47-.48-.94-.62-1.4-.76-1.65-3.86-4.69-6.72-3.13,3-1.03,5.86,2.77,6.26,4.27-.73-1.18-2.04-2.02-4.42-1.56-3.18.62-5.02-2.73-4.54-2.62,1.35.31,2.26-1.56,4.28-1.89,2.2-.35,4.22,1.35,4.95,3.94-.42-4.69,5.89-8.26,5-6.56Z"/></g></g></g><g><g><g><path class="cls-1" d="m183.05,22.36c-1.35,1.35-.88,3.14-.53,3.49.35.35,2.13.82,3.49-.53,1.35-1.35,1.96-4.91,1.96-4.91,0,0-3.56.61-4.91,1.96Z"/><g><path class="cls-1" d="m182.55,18.45c-.98-.12-1.39.48-1.36.68.02.2.58.91,1.56,1.02.98.12,2.4-.55,2.4-.55,0,0-1.62-1.03-2.6-1.14Z"/><path class="cls-1" d="m188.21,25.61c.12.98.82,1.54,1.02,1.56s.79-.38.68-1.36c-.12-.98-1.14-2.6-1.14-2.6,0,0-.67,1.42-.56,2.4Z"/></g></g><g><path class="cls-1" d="m199.8,28.47c1-1.56,2.71-2.06,2.72-2.05,1.28,2.55-.07,3.91.22,4.91.09.3-.6.02-.86-.63-.24.67-1.63.73-1.77,2.12-.06.59-1.95-1.81-.31-4.35Z"/><path class="cls-1" d="m197.46,45.07c-.61-2.96-3.69-1.98-2.84-7.4-5.05-2.21-6.01-7.07-3.21-11.67,0,0,0,0,0,0,.64-1.12,2.91-3.33,6.79-3.53,3.55-.19,6.38,2.58,4.87,2.47-2.81-.21-2.99,2.57-5.45,2-1.85-.43,0-.89-.82-1.59-1.18-1.03-3.63-.24-4.88,2.19-1.04,2.01.05,4.52,1.91,4.51,1.06-1.69,4.21-1.15,3.41,1.31-.99,3.04-5.96.97-6.8-2.73.01,2.63,1.33,4.79,4.89,6.04.46.16.85.37,1.2.61,1.43.7,5.23,1.04,6.3-1.61-1.46,2.37-5.52,1.38-6.62.58,1.15.39,2.51.24,3.87-1.4,1.82-2.19,4.93-.94,4.54-.75-1.09.54-.66,2.32-1.85,3.66-1.29,1.46-3.62,1.43-5.56.08,2.89,2.95.6,8.88.26,7.23Z"/></g><g><path class="cls-1" d="m177.79,13.55c1.46,1.15,1.78,2.9,1.77,2.91-2.67,1.02-3.88-.45-4.9-.26-.31.06.04-.6.71-.79-.64-.3-.57-1.7-1.94-1.97-.58-.11,1.99-1.76,4.36.11Z"/><path class="cls-1" d="m161.5,9.6c3-.31,2.33-3.48,7.64-2.1,2.69-4.82,7.62-5.29,11.93-2.05,0,0,0,0,0,0,1.05.74,3.03,3.22,2.85,7.1-.16,3.55-3.19,6.1-2.93,4.61.48-2.77-2.26-3.23-1.46-5.62.61-1.8.88.08,1.67-.66,1.14-1.08.59-3.59-1.7-5.07-1.9-1.23-4.5-.39-4.68,1.46,1.58,1.22.74,4.3-1.64,3.26-2.93-1.28-.38-6.03,3.39-6.5-2.62-.24-4.9.86-6.49,4.28-.2.44-.45.81-.72,1.13-.83,1.36-1.55,5.1.99,6.43-2.22-1.69-.83-5.63.07-6.65-.5,1.11-.48,2.48,1.01,3.99,2,2.02.46,5,.3,4.59-.43-1.14-2.24-.88-3.46-2.2-1.33-1.43-1.07-3.74.46-5.54-3.22,2.59-8.9-.27-7.23-.45Z"/></g><g><path class="cls-1" d="m197.24,13.37c2.01.65,3.88-.15,3.88-.16-.72-3.17-2.88-3.39-3.35-4.48-.14-.33-.55.42-.3,1.17-.69-.42-1.97.54-3.09-.59-.48-.48-.41,3,2.87,4.06Z"/><path class="cls-1" d="m183.19.43c1.6,3.04-1.82,4.41,2.84,8.57-2.86,5.59-.19,10.57,5.6,12.6,0,0,0,0,0,0,1.37.53,4.96.83,8.53-1.79,3.26-2.4,3.76-6.88,2.51-5.69-2.32,2.21-4.49-.1-6.24,2.17-1.32,1.71.64.78.43,2-.3,1.76-3.03,2.83-5.88,1.6-2.37-1.03-3.22-4.01-1.58-5.36,2.16.73,4.54-2.03,2.05-3.62-3.07-1.96-5.95,3.45-4.02,7.32-1.89-2.33-2.29-5.18-.06-8.86.29-.47.48-.94.62-1.4.76-1.65,3.86-4.69,6.72-3.13-3-1.03-5.86,2.77-6.26,4.27.73-1.18,2.04-2.02,4.42-1.56,3.18.62,5.02-2.73,4.54-2.62-1.35.31-2.26-1.56-4.28-1.89-2.2-.35-4.22,1.35-4.95,3.94.42-4.69-5.89-8.26-5-6.56Z"/></g></g><g><g><path class="cls-1" d="m183.05,116.98c-1.35-1.35-.88-3.14-.53-3.49.35-.35,2.13-.82,3.49.53,1.35,1.35,1.96,4.91,1.96,4.91,0,0-3.56-.61-4.91-1.96Z"/><g><path class="cls-1" d="m182.55,120.89c-.98.12-1.39-.48-1.36-.68.02-.2.58-.91,1.56-1.02.98-.12,2.4.55,2.4.55,0,0-1.62,1.03-2.6,1.14Z"/><path class="cls-1" d="m188.21,113.73c.12-.98.82-1.54,1.02-1.56.2-.02.79.38.68,1.36-.12.98-1.14,2.6-1.14,2.6,0,0-.67-1.42-.56-2.4Z"/></g></g><g><path class="cls-1" d="m199.8,110.87c1,1.56,2.71,2.06,2.72,2.05,1.28-2.55-.07-3.91.22-4.91.09-.3-.6-.02-.86.63-.24-.67-1.63-.73-1.77-2.12-.06-.59-1.95,1.81-.31,4.35Z"/><path class="cls-1" d="m197.46,94.27c-.61,2.96-3.69,1.98-2.84,7.4-5.05,2.21-6.01,7.07-3.21,11.67,0,0,0,0,0,0,.64,1.12,2.91,3.33,6.79,3.53,3.55.19,6.38-2.58,4.87-2.47-2.81.21-2.99-2.57-5.45-2-1.85.43,0,.89-.82,1.59-1.18,1.03-3.63.24-4.88-2.19-1.04-2.01.05-4.52,1.91-4.51,1.06,1.69,4.21,1.15,3.41-1.31-.99-3.04-5.96-.97-6.8,2.73.01-2.63,1.33-4.79,4.89-6.04.46-.16.85-.37,1.2-.61,1.43-.7,5.23-1.04,6.3,1.61-1.46-2.37-5.52-1.38-6.62-.58,1.15-.39,2.51-.24,3.87,1.4,1.82,2.19,4.93.94,4.54.75-1.09-.54-.66-2.31-1.85-3.66-1.29-1.46-3.62-1.43-5.56-.08,2.89-2.95.6-8.88.26-7.23Z"/></g><g><path class="cls-1" d="m177.79,125.79c1.46-1.15,1.78-2.9,1.77-2.91-2.67-1.02-3.88.45-4.9.26-.31-.06.04.6.71.79-.64.3-.57,1.7-1.94,1.97-.58.11,1.99,1.76,4.36-.11Z"/><path class="cls-1" d="m161.5,129.74c3,.31,2.33,3.48,7.64,2.1,2.69,4.82,7.62,5.29,11.93,2.05,0,0,0,0,0,0,1.05-.74,3.03-3.22,2.85-7.1-.16-3.55-3.19-6.1-2.93-4.61.48,2.77-2.26,3.23-1.46,5.62.61,1.8.88-.08,1.67.66,1.14,1.08.59,3.59-1.7,5.07-1.9,1.23-4.5.39-4.68-1.46,1.58-1.22.74-4.3-1.64-3.26-2.93,1.28-.38,6.03,3.39,6.5-2.62.24-4.9-.86-6.49-4.28-.2-.44-.45-.81-.72-1.13-.83-1.36-1.55-5.1.99-6.43-2.22,1.69-.83,5.63.07,6.65-.5-1.11-.48-2.48,1.01-3.99,2-2.02.46-5,.3-4.59-.43,1.14-2.24.89-3.46,2.2-1.33,1.43-1.07,3.74.46,5.54-3.22-2.59-8.9.27-7.23.45Z"/></g><g><path class="cls-1" d="m197.24,125.97c2.01-.65,3.88.15,3.88.16-.72,3.17-2.88,3.39-3.35,4.48-.14.33-.55-.42-.3-1.17-.69.42-1.97-.54-3.09.59-.48.48-.41-3,2.87-4.06Z"/><path class="cls-1" d="m183.19,138.91c1.6-3.04-1.82-4.41,2.84-8.57-2.86-5.6-.19-10.57,5.6-12.6,0,0,0,0,0,0,1.37-.53,4.96-.83,8.53,1.79,3.26,2.4,3.76,6.88,2.51,5.69-2.32-2.21-4.49.1-6.24-2.17-1.32-1.71.64-.78.43-2-.3-1.76-3.03-2.83-5.88-1.6-2.37,1.03-3.22,4.01-1.58,5.36,2.16-.73,4.54,2.03,2.05,3.62-3.07,1.96-5.95-3.45-4.02-7.32-1.89,2.33-2.29,5.18-.06,8.86.29.47.48.94.62,1.4.76,1.65,3.86,4.69,6.72,3.13-3,1.03-5.86-2.77-6.26-4.27.73,1.18,2.04,2.02,4.42,1.56,3.18-.62,5.02,2.73,4.54,2.62-1.35-.31-2.26,1.56-4.28,1.89-2.2.35-4.22-1.35-4.95-3.94.42,4.69-5.89,8.26-5,6.56Z"/></g></g></g></g><g><g><g><rect class="cls-1" x="65.81" y="107.89" width="1.27" height="43.31" transform="translate(-63.1 195.99) rotate(-90)"/><rect class="cls-1" x="63.06" y="106.71" width=".68" height="55.06" transform="translate(-70.84 197.64) rotate(-90)"/></g><g><rect class="cls-1" x="137.57" y="107.89" width="1.27" height="43.31" transform="translate(8.65 267.75) rotate(-90)"/><rect class="cls-1" x="140.9" y="106.71" width=".68" height="55.06" transform="translate(7 275.49) rotate(-90)"/></g></g><g><g><rect class="cls-1" x="137.57" y="-11.87" width="1.27" height="43.31" transform="translate(147.99 -128.41) rotate(90)"/><rect class="cls-1" x="140.9" y="-22.44" width=".68" height="55.06" transform="translate(146.34 -136.15) rotate(90)"/></g><g><rect class="cls-1" x="65.81" y="-11.87" width="1.27" height="43.31" transform="translate(76.24 -56.66) rotate(90)"/><rect class="cls-1" x="63.06" y="-22.44" width=".68" height="55.06" transform="translate(68.5 -58.31) rotate(90)"/></g></g></g><g><g><g><rect class="cls-1" x="7.3" y="46.42" width="1.27" height="17.5"/><rect class="cls-1" x="2.9" y="42.82" width=".68" height="22.25"/></g><g><rect class="cls-1" x="7.3" y="75.42" width="1.27" height="17.5"/><rect class="cls-1" x="2.9" y="74.27" width=".68" height="22.25"/></g></g><g><g><rect class="cls-1" x="196.07" y="75.42" width="1.27" height="17.5" transform="translate(393.41 168.33) rotate(180)"/><rect class="cls-1" x="201.06" y="74.27" width=".68" height="22.25" transform="translate(402.81 170.79) rotate(180)"/></g><g><rect class="cls-1" x="196.07" y="46.42" width="1.27" height="17.5" transform="translate(393.41 110.34) rotate(180)"/><rect class="cls-1" x="201.06" y="42.82" width=".68" height="22.25" transform="translate(402.81 107.88) rotate(180)"/></g></g></g></g></svg>