<?xml version="1.0" encoding="utf-8"?>
<!-- Generator: Adobe Illustrator 27.1.1, SVG Export Plug-In . SVG Version: 6.00 Build 0)  -->
<svg version="1.1" id="Layer_1" xmlns="http://www.w3.org/2000/svg" xmlns:xlink="http://www.w3.org/1999/xlink" x="0px" y="0px"
	 viewBox="0 0 512 512" style="enable-background:new 0 0 512 512;" xml:space="preserve">
<style type="text/css">
	.st0{fill:#4C4C4C;}
</style>
<path class="st0" d="M175,175c9.4-9.3,24.6-9.3,33.1,0l47,47.1L303,175c9.4-9.3,24.6-9.3,33.1,0c10.2,9.4,10.2,24.6,0,33.1l-46.2,47
	l46.2,47.9c10.2,9.4,10.2,24.6,0,33.1c-8.5,10.2-23.7,10.2-33.1,0l-47.9-46.2l-47,46.2c-8.5,10.2-23.7,10.2-33.1,0
	c-9.3-8.5-9.3-23.7,0-33.1l47.1-47.9l-47.1-47C165.7,199.6,165.7,184.4,175,175L175,175z M0,96c0-35.3,28.6-64,64-64h384
	c35.3,0,64,28.7,64,64v320c0,35.3-28.7,64-64,64H64c-35.3,0-64-28.7-64-64V96z M48,96v320c0,8.8,7.2,16,16,16h384
	c8.8,0,16-7.2,16-16V96c0-8.8-7.2-16-16-16H64C55.2,80,48,87.2,48,96z"/>
</svg>
